<svg xmlns:xlink="http://www.w3.org/1999/xlink" xmlns="http://www.w3.org/2000/svg" viewBox="0 0 64 64" width="64" height="64" preserveAspectRatio="xMidYMid meet" style="width: 100%; height: 100%; transform: translate3d(0px, 0px, 0px);"><defs><clipPath id="__lottie_element_2"><rect width="64" height="64" x="0" y="0"></rect></clipPath><clipPath id="__lottie_element_4"><path d="M0,0 L512,0 L512,512 L0,512z"></path></clipPath><radialGradient id="__lottie_element_11" spreadMethod="pad" gradientUnits="userSpaceOnUse" cx="11" cy="-24" r="78.1542012445136" fx="11" fy="-24"><stop offset="1%" stop-color="rgb(255,51,71)"></stop><stop offset="82%" stop-color="rgb(231,32,53)"></stop><stop offset="100%" stop-color="rgb(207,13,35)"></stop></radialGradient><radialGradient id="__lottie_element_11" spreadMethod="pad" gradientUnits="userSpaceOnUse" cx="11" cy="-24" r="78.1542012445136" fx="11" fy="-24"><stop offset="1%" stop-color="rgb(255,51,71)"></stop><stop offset="82%" stop-color="rgb(231,32,53)"></stop><stop offset="100%" stop-color="rgb(207,13,35)"></stop></radialGradient></defs><g clip-path="url(#__lottie_element_2)"><g clip-path="url(#__lottie_element_4)" transform="matrix(0.125,0,0,0.125,0,0)" opacity="1" style="display: block;"><g transform="matrix(6,0,0,6,256,256)" opacity="1" style="display: block;"><g opacity="1" transform="matrix(1,0,0,1,0,0)"><path fill="url(&quot;#__lottie_element_11&quot;)" fill-opacity="1" d=" M32,0 C32,17.670000076293945 17.670000076293945,32 0,32 C-17.670000076293945,32 -32,17.670000076293945 -32,0 C-32,-17.670000076293945 -17.670000076293945,-32 0,-32 C17.670000076293945,-32 32,-17.670000076293945 32,0z"></path></g></g><g transform="matrix(6,0,0,6,256,256)" opacity="1" style="display: block;"><g opacity="1" transform="matrix(1,0,0,1,0,0)"><path fill="#FFFFFF" fill-opacity="1" d=" M19,-3.5350000858306885 C19,4.623000144958496 4.315000057220459,13.680999755859375 0.7110000252723694,15.781000137329102 C0.21899999678134918,16.069000244140625 -0.3840000033378601,16.069000244140625 -0.8880000114440918,15.803999900817871 C-4.638999938964844,13.75 -19,4.6570000648498535 -19,-3.5350000858306885 C-19,-9.315999984741211 -14.869000434875488,-14 -8.940999984741211,-14 C-5.214000225067139,-14 -1.9190000295639038,-12.142000198364258 0,-9.3149995803833 C1.9190000295639038,-12.142000198364258 5.214000225067139,-14 8.940999984741211,-14 C14.869000434875488,-14 19,-9.315999984741211 19,-3.5350000858306885z"></path></g></g></g></g></svg>