<svg width="24" height="24" viewBox="0 0 24 24" fill="none" xmlns="http://www.w3.org/2000/svg">
<path d="M11.9999 3.72997C10.8799 3.79997 9.99993 4.72997 9.99993 5.86997V7.98997H9.97993C7.57877 8.48954 5.44852 9.8626 4.00192 11.8431C2.55532 13.8237 1.89537 16.2706 2.14993 18.71C2.1675 18.8897 2.23874 19.06 2.35439 19.1987C2.47004 19.3375 2.62476 19.4382 2.79841 19.4878C2.97207 19.5374 3.15663 19.5336 3.32811 19.4769C3.49959 19.4203 3.65005 19.3133 3.75993 19.17L3.94993 18.93C5.41089 17.1398 7.49938 15.974 9.78993 15.67L9.98993 15.64L9.99993 18.14C9.99979 18.5436 10.1133 18.9391 10.3274 19.2813C10.5415 19.6234 10.8476 19.8984 11.2107 20.0747C11.5738 20.251 11.9792 20.3216 12.3805 20.2783C12.7818 20.235 13.1628 20.0797 13.4799 19.83L21.2999 13.69C21.5558 13.4888 21.7626 13.2321 21.9048 12.9394C22.047 12.6466 22.1209 12.3254 22.1209 12C22.1209 11.6745 22.047 11.3533 21.9048 11.0605C21.7626 10.7678 21.5558 10.5112 21.2999 10.31L13.4799 4.17997C13.0999 3.87997 12.6299 3.71997 12.1499 3.71997L11.9999 3.72997ZM12.1499 5.51997C12.2299 5.51997 12.2999 5.54997 12.3699 5.58997L20.1899 11.73C20.2315 11.7627 20.2652 11.8045 20.2883 11.8521C20.3114 11.8998 20.3234 11.952 20.3234 12.005C20.3234 12.0579 20.3114 12.1102 20.2883 12.1578C20.2652 12.2054 20.2315 12.2472 20.1899 12.28L12.3699 18.41C12.318 18.4519 12.2552 18.4782 12.1889 18.4856C12.1225 18.4931 12.0554 18.4814 11.9955 18.452C11.9356 18.4225 11.8854 18.3766 11.8507 18.3195C11.816 18.2625 11.7984 18.1967 11.7999 18.13V14.7C11.8 14.5801 11.776 14.4614 11.7296 14.3509C11.6831 14.2404 11.615 14.1402 11.5293 14.0564C11.4436 13.9726 11.342 13.9067 11.2305 13.8627C11.119 13.8186 10.9998 13.7973 10.8799 13.8H10.6499L10.3099 13.82C8.02993 13.96 5.90993 14.8 4.18993 16.18L4.01993 16.33L4.03993 16.19C4.35984 14.5034 5.20732 12.962 6.46008 11.7884C7.71284 10.6147 9.30609 9.86938 11.0099 9.65997C11.2291 9.63299 11.4307 9.52638 11.5763 9.36043C11.722 9.19448 11.8016 8.98078 11.7999 8.75997V5.86997C11.7999 5.66997 11.9599 5.51997 12.1499 5.51997V5.51997Z" fill="#99A2AD"/>
</svg>
