<svg xmlns:xlink="http://www.w3.org/1999/xlink" width="56" height="56" viewBox="0 0 56 56" xmlns="http://www.w3.org/2000/svg"><g id="newsfeed_outline_56__Icons-56/newsfeed_outline_56" stroke="none" stroke-width="1" fill="none" fill-rule="evenodd"><g id="newsfeed_outline_56__newsfeed_outline_56" fill="none"><path d="M0 0h56v56H0z" fill="none"></path><path d="M20.32 6H35.1c3.73.03 5.68.37 7.57 1.3l.42.21c1.9 1.01 3.39 2.5 4.4 4.4 1.04 1.96 1.45 3.85 1.5 7.58l.01.83V35.5c-.06 3.73-.47 5.62-1.51 7.58a10.59 10.59 0 01-4.4 4.4c-1.96 1.04-3.85 1.45-7.58 1.5l-.83.01H19.5c-3.73-.06-5.62-.47-7.58-1.51a10.59 10.59 0 01-4.4-4.4c-1.04-1.96-1.45-3.85-1.5-7.58L6 34.68V19.9c.03-3.73.37-5.68 1.3-7.57l.21-.42c1.01-1.9 2.5-3.39 4.4-4.4 1.96-1.04 3.85-1.45 7.58-1.5l.83-.01zM46 20.91a1.5 1.5 0 01-.5.09h-36a1.5 1.5 0 01-.5-.09v14.51c.04 3.3.36 4.76 1.16 6.26a7.59 7.59 0 003.16 3.16c1.5.8 2.95 1.12 6.26 1.16h15.84c3.3-.04 4.76-.36 6.26-1.16a7.59 7.59 0 003.16-3.16c.8-1.5 1.12-2.95 1.16-6.26v-.74zM34.68 9h-15.1c-3.3.04-4.76.36-6.26 1.16a7.59 7.59 0 00-3.16 3.16c-.67 1.25-1 2.47-1.11 4.75.14-.05.3-.07.45-.07h36c.16 0 .3.02.45.07-.11-2.28-.44-3.5-1.1-4.75a7.59 7.59 0 00-3.17-3.16c-1.6-.86-3.16-1.16-7-1.16z" id="newsfeed_outline_56__Icon-Color" fill="#AEB7C2" fill-rule="nonzero"></path></g></g></svg>